<svg xmlns="http://www.w3.org/2000/svg" height="512pt" viewBox="-121 0 512 512" width="512pt"><path d="m86.9375 182.8125c2.082031 3.605469 2.941406 7.789062 2.453125 11.921875l-17.324219 154.523437h126.214844l-17.324219-154.523437c-.488281-4.132813.371094-8.316406 2.453125-11.921875l13.09375-22.679688c13.894532-24.070312-3.476562-54.152343-31.265625-54.152343l-29.488281-40.863281-30.640625 40.863281c-27.792969 0-45.164063 30.082031-31.265625 54.152343zm0 0" fill="#f9cd45" style="&#10;    fill: #39d1dd;&#10;"/><path d="m183.410156 182.8125 13.09375-22.679688c13.894532-24.070312-3.476562-54.152343-31.265625-54.152343l-29.488281-40.863281-15.855469 21.144531 14.226563 19.71875c27.792968 0 45.164062 30.082031 31.265625 54.152343l-13.09375 22.679688c-2.082031 3.605469-2.941407 7.789062-2.449219 11.921875l17.320312 154.523437h31.117188l-17.324219-154.523437c-.488281-4.132813.371094-8.316406 2.453125-11.921875zm0 0" fill="#f8b53c" style="&#10;    fill: #11b0bf;&#10;"/><path d="m173.40625 45.6875c0-25.234375-17.085938-45.6875-38.160156-45.6875-21.078125 0-38.164063 20.453125-38.164063 45.6875 0 25.230469 17.085938 45.683594 38.164063 45.683594 21.074218 0 38.160156-20.453125 38.160156-45.683594zm0 0" fill="#f9cd45" style="&#10;    fill: #39d1dd;&#10;"/><path d="m135.242188 0c-5.539063 0-10.800782 1.425781-15.554688 3.96875 13.316406 7.132812 22.605469 23.121094 22.605469 41.714844 0 18.597656-9.289063 34.585937-22.605469 41.714844 4.753906 2.546874 10.015625 3.972656 15.554688 3.972656 21.078124 0 38.164062-20.457032 38.164062-45.6875 0-25.230469-17.085938-45.683594-38.164062-45.683594zm0 0" fill="#f8b53c" style="&#10;    fill: #11b0bf;&#10;"/><path d="m135.171875 344.890625c-4.292969 0-7.777344-3.484375-7.777344-7.78125v-63.761719c0-4.292968 3.484375-7.777344 7.777344-7.777344 4.296875 0 7.78125 3.484376 7.78125 7.777344v63.761719c0 4.296875-3.484375 7.78125-7.78125 7.78125zm0 0" fill="#f8b53c" style="&#10;    fill: #11b0bf;&#10;"/><path d="m215.203125 469.3125h-160.058594c-8.558593 0-15.558593-7-15.558593-15.554688v-99.65625c0-8.554687 7-15.558593 15.558593-15.558593h160.058594c8.554687 0 15.558594 7.003906 15.558594 15.558593v99.65625c0 8.554688-7.003907 15.554688-15.558594 15.554688zm0 0" fill="#75737b"/><path d="m215.203125 338.542969h-31.113281c8.554687 0 15.554687 7.003906 15.554687 15.558593v99.65625c0 8.554688-7 15.554688-15.554687 15.554688h31.113281c8.554687 0 15.558594-7 15.558594-15.554688v-99.65625c0-8.554687-7.003907-15.558593-15.558594-15.558593zm0 0" fill="#504e54"/><path d="m254.789062 512h-239.230468c-8.558594 0-15.558594-7-15.558594-15.558594v-89.28125c0-8.558594 7-15.558594 15.558594-15.558594h239.230468c8.558594 0 15.558594 7 15.558594 15.558594v89.28125c0 8.558594-7 15.558594-15.558594 15.558594zm0 0" fill="#504e54"/><path d="m254.789062 391.601562h-31.113281c8.554688 0 15.558594 7 15.558594 15.558594v89.28125c0 8.558594-7.003906 15.558594-15.558594 15.558594h31.113281c8.558594 0 15.558594-7 15.558594-15.558594v-89.28125c0-8.558594-7-15.558594-15.558594-15.558594zm0 0" fill="#41444a" style="&#10;    fill: 352c42;&#10;"/><path d="m204.988281 480.632812h-139.632812c-8.554688 0-15.554688-7-15.554688-15.558593v-22.515625c0-8.558594 7-15.558594 15.554688-15.558594h139.632812c8.554688 0 15.558594 7 15.558594 15.558594v22.515625c0 8.558593-7 15.558593-15.558594 15.558593zm0 0" fill="#f9cd45" style="&#10;    fill: #39d1dd;&#10;"/><path d="m204.988281 427h-31.113281c8.554688 0 15.558594 7 15.558594 15.558594v22.515625c0 8.558593-7.003906 15.558593-15.558594 15.558593h31.113281c8.558594 0 15.558594-7 15.558594-15.558593v-22.515625c0-8.558594-7-15.558594-15.558594-15.558594zm0 0" fill="#f8b53c" style="&#10;    fill: #11b0bf;&#10;"/></svg>