<svg xmlns="http://www.w3.org/2000/svg" xmlns:xlink="http://www.w3.org/1999/xlink" version="1.1" id="Layer_1" x="0px" y="0px" viewBox="0 0 490.667 490.667" style="enable-background:new 0 0 490.667 490.667;" xml:space="preserve">
<g>
	<g>
		<g>
			<path d="M195.115,323.115c-4.16,4.16-4.16,10.923,0,15.083c2.091,2.091,4.821,3.136,7.552,3.136c2.731,0,5.461-1.045,7.552-3.115     l85.333-85.333c4.16-4.16,4.16-10.923,0-15.083l-85.333-85.333c-4.16-4.16-10.923-4.16-15.083,0c-4.16,4.16-4.16,10.923,0,15.083     l67.115,67.115H10.667C4.779,234.667,0,239.445,0,245.333S4.779,256,10.667,256h251.584L195.115,323.115z" style="&#10;    fill: #fff;&#10;"/>
			<path d="M437.333,0H202.667c-29.397,0-53.333,23.936-53.333,53.333v149.333c0,5.888,4.779,10.667,10.667,10.667h25.003     c4.309,0,8.213-2.603,9.856-6.592c1.664-3.989,0.747-8.576-2.304-11.627l-12.523-12.48c-6.037-6.059-9.365-14.101-9.365-22.635     s3.328-16.576,9.387-22.635c12.053-12.096,33.152-12.096,45.248,0l85.333,85.333c6.037,6.059,9.365,14.08,9.365,22.635     s-3.328,16.576-9.365,22.635l-85.333,85.333c-12.053,12.096-33.152,12.096-45.248,0c-6.059-6.059-9.387-14.101-9.387-22.635     c0-8.533,3.328-16.576,9.365-22.635l12.501-12.501c3.051-3.051,3.968-7.637,2.304-11.627c-1.621-3.968-5.525-6.571-9.835-6.571     H160c-5.888,0-10.667,4.779-10.667,10.667v149.333c0,29.397,23.936,53.333,53.333,53.333h234.667     c29.397,0,53.333-23.936,53.333-53.333v-384C490.667,23.936,466.731,0,437.333,0z" style="&#10;    fill: #fff;&#10;"/>
		</g>
	</g>
</g>
<g>
</g>
<g>
</g>
<g>
</g>
<g>
</g>
<g>
</g>
<g>
</g>
<g>
</g>
<g>
</g>
<g>
</g>
<g>
</g>
<g>
</g>
<g>
</g>
<g>
</g>
<g>
</g>
<g>
</g>
</svg>