<svg xmlns="http://www.w3.org/2000/svg" width="15.64" height="10.398" viewBox="0 0 15.64 10.398">
  <g id="Clear" transform="translate(159.16 -881.21)">
    <path id="Path_74" data-name="Path 74" d="M10.678,21a.348.348,0,0,0-.223.114L6.1,25.813a.348.348,0,0,0,0,.468l4.352,4.7a.348.348,0,0,0,.256.114H20.982a.348.348,0,0,0,.348-.348v-9.4A.348.348,0,0,0,20.982,21h-10.3Zm.185.7h9.771v8.7H10.863L6.832,26.047ZM13.11,23.6a.348.348,0,0,0-.207.6l1.844,1.844L12.9,27.886a.348.348,0,1,0,.49.5l1.844-1.844,1.844,1.844a.348.348,0,1,0,.49-.5l-1.844-1.839L17.571,24.2a.348.348,0,1,0-.49-.5l-1.844,1.844-1.844-1.844A.348.348,0,0,0,13.11,23.6Z" transform="translate(-165 860.362)" fill="#666" stroke="#666" stroke-width="0.3"/>
  </g>
</svg>