<svg xmlns="http://www.w3.org/2000/svg" width="15.868" height="14.735" viewBox="0 0 15.868 14.735">
  <g id="Submit" transform="translate(0.25 0.25)">
    <path id="Path_6" data-name="Path 6" d="M26.053,20.709a.051.051,0,0,0-.034.007.18.18,0,0,0-.1.048l-3.4,3.414a.19.19,0,0,0-.02.279.192.192,0,0,0,.286-.014l3.076-3.066c0,.075.007.17.007.3,0,.286,0,.688.007,1.172,0,.961-.007,2.221-.007,3.489-.007,2.535-.007,5.049-.007,5.049a.191.191,0,1,0,.381,0s.007-2.514.007-5.049c0-1.268.007-2.535.007-3.5,0-.484-.007-.879-.007-1.165,0-.136-.007-.232-.007-.313l3.083,3.08a.189.189,0,1,0,.265-.266l-3.4-3.414a.193.193,0,0,0-.136-.054Zm-6.214,8.1a1.468,1.468,0,0,0-1.463,1.472v3.189a1.468,1.468,0,0,0,1.463,1.472H32.274a1.474,1.474,0,0,0,1.47-1.472V30.283a1.474,1.474,0,0,0-1.47-1.472H29.8a.2.2,0,0,0-.191.2.2.2,0,0,0,.191.191h2.471a1.077,1.077,0,0,1,1.082,1.083v3.189a1.083,1.083,0,0,1-1.082,1.09H19.839a1.083,1.083,0,0,1-1.082-1.09V30.283A1.077,1.077,0,0,1,19.839,29.2H22.31a.2.2,0,0,0,.191-.191.2.2,0,0,0-.191-.2H19.839Z" transform="translate(-18.376 -20.709)" fill="#666" stroke="#666" stroke-width="0.5"/>
  </g>
</svg>