<svg xmlns="http://www.w3.org/2000/svg" id="Capa_1" enable-background="new 0 0 512 512" height="512" viewBox="0 0 512 512" width="512"><g><circle cx="256" cy="301" r="15" style="&#10;    fill: #352c42;&#10;"/><path d="m312.224 385.708c20.428-16.512 33.776-41.455 33.776-69.708 0-49.629-40.371-90-90-90s-90 40.371-90 90c0 28.253 13.348 53.196 33.776 69.708 8.36-23.082 30.287-39.708 56.224-39.708-24.814 0-45-20.186-45-45s20.186-45 45-45 45 20.186 45 45-20.186 45-45 45c25.937 0 47.864 16.626 56.224 39.708z" style="&#10;    fill: #352c42;&#10;"/><path d="m70.551 280.111c36.943-35.507 87.524-84.111 185.449-84.111s148.506 48.604 185.449 84.111c26.261 25.243 48.701 40.197 70.551 34.224-6.907-16.154-28.627-46.972-54.015-78.501l26.765-20.381c6.592-5.024 7.866-14.429 2.856-21.021-5.024-6.606-14.429-7.881-21.021-2.856l-28.594 21.773c-16.637-16.972-36.504-33.078-60.005-46.219l20.089-36.403c3.999-7.251 1.362-16.377-5.889-20.391-7.28-3.97-16.392-1.362-20.391 5.889l-20.982 38.024c-23.491-9.532-50.026-15.807-79.814-17.452v-45.797c0-8.291-6.709-15-15-15s-15 6.709-15 15v45.797c-29.788 1.644-56.323 7.919-79.814 17.452l-20.982-38.024c-4.028-7.251-13.125-9.858-20.391-5.889-7.251 4.014-9.888 13.14-5.889 20.391l20.089 36.403c-23.5 13.14-43.37 29.247-60.007 46.219l-28.592-21.773c-6.577-5.024-15.996-3.75-21.021 2.856-5.01 6.592-3.735 15.996 2.856 21.021l26.765 20.381c-25.384 31.528-47.106 62.346-54.013 78.5 21.876 5.991 44.315-8.961 70.551-34.223z" style="&#10;    fill: #ffffff;&#10;"/><path d="m496 346c.357 0 .657-.218 1.011-.244-.256.004-.535.082-.791.082-29.678 0-52.866-22.295-75.571-44.106-17.734-17.045-37.718-36.165-64.175-50.945 12.249 18.807 19.526 41.144 19.526 65.213 0 67.966-57.127 120-120 120 74.575 0 126.987-32.563 169.087-58.726 27.012-16.787 50.347-31.274 70.913-31.274z" style="&#10;    fill: #ffffff;&#10;"/><path d="m91.352 301.732c-23.013 22.092-46.586 44.502-76.807 43.916.505.052.942.352 1.455.352 20.566 0 43.901 14.487 70.913 31.274 42.1 26.163 94.512 58.726 169.087 58.726-63.208 0-120-52.353-120-120 0-24.069 7.277-46.406 19.526-65.213-26.457 14.78-46.441 33.9-64.174 50.945z" style="&#10;    fill: #ffffff;&#10;"/><path d="m227.053 400.798c9.135 3.131 18.765 5.202 28.947 5.202s19.812-2.069 28.947-5.2c-2.552-13.971-14.253-24.8-28.947-24.8s-26.395 10.827-28.947 24.798z" style="&#10;    fill: #352c42;&#10;"/></g></svg>